bicep_curl
version=1
nRows=272
nColumns=3
inDegrees=yes

# SIMM Motion File Header:
name bicep_curl
datacolumns 3
datarows 272
otherdata 1
range 0.0000 0.2710
endheader
time	/jointset/r_shoulder/r_shoulder_elev/value	/jointset/r_elbow/r_elbow_flex/value
0.0000	0.0000	63.7000
0.0010	0.0000	63.7927
0.0020	0.0000	63.8854
0.0030	0.0000	63.9780
0.0040	0.0000	64.0707
0.0050	0.0000	64.1634
0.0060	0.0000	64.2561
0.0070	0.0000	64.3488
0.0080	0.0000	64.4414
0.0090	0.0000	64.5341
0.0100	0.0000	64.6268
0.0110	0.0000	64.7195
0.0120	0.0000	64.8122
0.0130	0.0000	64.9048
0.0140	0.0000	64.9975
0.0150	0.0000	65.0902
0.0160	0.0000	65.1829
0.0170	0.0000	65.2756
0.0180	0.0000	65.3682
0.0190	0.0000	65.4609
0.0200	0.0000	65.5536
0.0210	0.0000	65.6463
0.0220	0.0000	65.7390
0.0230	0.0000	65.8316
0.0240	0.0000	65.9243
0.0250	0.0000	66.0170
0.0260	0.0000	66.1097
0.0270	0.0000	66.2024
0.0280	0.0000	66.2950
0.0290	0.0000	66.3877
0.0300	0.0000	66.4804
0.0310	0.0000	66.5731
0.0320	0.0000	66.6658
0.0330	0.0000	66.7584
0.0340	0.0000	66.8511
0.0350	0.0000	66.9438
0.0360	0.0000	67.0365
0.0370	0.0000	67.1292
0.0380	0.0000	67.2218
0.0390	0.0000	67.3145
0.0400	0.0000	67.4072
0.0410	0.0000	67.4999
0.0420	0.0000	67.5926
0.0430	0.0000	67.6852
0.0440	0.0000	67.7779
0.0450	0.0000	67.8706
0.0460	0.0000	67.9633
0.0470	0.0000	68.0560
0.0480	0.0000	68.1486
0.0490	0.0000	68.2413
0.0500	0.0000	68.3340
0.0510	0.0000	68.4267
0.0520	0.0000	68.5194
0.0530	0.0000	68.6120
0.0540	0.0000	68.7047
0.0550	0.0000	68.7974
0.0560	0.0000	68.8901
0.0570	0.0000	68.9828
0.0580	0.0000	69.0754
0.0590	0.0000	69.1681
0.0600	0.0000	69.2608
0.0610	0.0000	69.3535
0.0620	0.0000	69.4462
0.0630	0.0000	69.5388
0.0640	0.0000	69.6315
0.0650	0.0000	69.7242
0.0660	0.0000	69.8169
0.0670	0.0000	69.9096
0.0680	0.0000	70.0022
0.0690	0.0000	70.0949
0.0700	0.0000	70.1876
0.0710	0.0000	70.2803
0.0720	0.0000	70.3730
0.0730	0.0000	70.4656
0.0740	0.0000	70.5583
0.0750	0.0000	70.6510
0.0760	0.0000	70.7437
0.0770	0.0000	70.8364
0.0780	0.0000	70.9290
0.0790	0.0000	71.0217
0.0800	0.0000	71.1144
0.0810	0.0000	71.2071
0.0820	0.0000	71.2998
0.0830	0.0000	71.3924
0.0840	0.0000	71.4851
0.0850	0.0000	71.5778
0.0860	0.0000	71.6705
0.0870	0.0000	71.7632
0.0880	0.0000	71.8558
0.0890	0.0000	71.9485
0.0900	0.0000	72.0412
0.0910	0.0000	72.1339
0.0920	0.0000	72.2266
0.0930	0.0000	72.3192
0.0940	0.0000	72.4119
0.0950	0.0000	72.5046
0.0960	0.0000	72.5973
0.0970	0.0000	72.6900
0.0980	0.0000	72.7826
0.0990	0.0000	72.8753
0.1000	0.0000	72.9680
0.1010	0.0000	73.0607
0.1020	0.0000	73.1534
0.1030	0.0000	73.2460
0.1040	0.0000	73.3387
0.1050	0.0000	73.4314
0.1060	0.0000	73.5241
0.1070	0.0000	73.6168
0.1080	0.0000	73.7094
0.1090	0.0000	73.8021
0.1100	0.0000	73.8948
0.1110	0.0000	73.9875
0.1120	0.0000	74.0802
0.1130	0.0000	74.1728
0.1140	0.0000	74.2655
0.1150	0.0000	74.3582
0.1160	0.0000	74.4509
0.1170	0.0000	74.5436
0.1180	0.0000	74.6362
0.1190	0.0000	74.7289
0.1200	0.0000	74.8216
0.1210	0.0000	74.9143
0.1220	0.0000	75.0070
0.1230	0.0000	75.0996
0.1240	0.0000	75.1923
0.1250	0.0000	75.2850
0.1260	0.0000	75.3777
0.1270	0.0000	75.4704
0.1280	0.0000	75.5630
0.1290	0.0000	75.6557
0.1300	0.0000	75.7484
0.1310	0.0000	75.8411
0.1320	0.0000	75.9338
0.1330	0.0000	76.0264
0.1340	0.0000	76.1191
0.1350	0.0000	76.2118
0.1360	0.0000	76.3045
0.1370	0.0000	76.3972
0.1380	0.0000	76.4898
0.1390	0.0000	76.5825
0.1400	0.0000	76.6752
0.1410	0.0000	76.7679
0.1420	0.0000	76.8606
0.1430	0.0000	76.9532
0.1440	0.0000	77.0459
0.1450	0.0000	77.1386
0.1460	0.0000	77.2313
0.1470	0.0000	77.3240
0.1480	0.0000	77.4166
0.1490	0.0000	77.5093
0.1500	0.0000	77.6020
0.1510	0.0000	77.6947
0.1520	0.0000	77.7874
0.1530	0.0000	77.8800
0.1540	0.0000	77.9727
0.1550	0.0000	78.0654
0.1560	0.0000	78.1581
0.1570	0.0000	78.2508
0.1580	0.0000	78.3434
0.1590	0.0000	78.4361
0.1600	0.0000	78.5288
0.1610	0.0000	78.6215
0.1620	0.0000	78.7142
0.1630	0.0000	78.8068
0.1640	0.0000	78.8995
0.1650	0.0000	78.9922
0.1660	0.0000	79.0849
0.1670	0.0000	79.1776
0.1680	0.0000	79.2702
0.1690	0.0000	79.3629
0.1700	0.0000	79.4556
0.1710	0.0000	79.5483
0.1720	0.0000	79.6410
0.1730	0.0000	79.7336
0.1740	0.0000	79.8263
0.1750	0.0000	79.9190
0.1760	0.0000	80.0117
0.1770	0.0000	80.1044
0.1780	0.0000	80.1970
0.1790	0.0000	80.2897
0.1800	0.0000	80.3824
0.1810	0.0000	80.4751
0.1820	0.0000	80.5678
0.1830	0.0000	80.6604
0.1840	0.0000	80.7531
0.1850	0.0000	80.8458
0.1860	0.0000	80.9385
0.1870	0.0000	81.0312
0.1880	0.0000	81.1238
0.1890	0.0000	81.2165
0.1900	0.0000	81.3092
0.1910	0.0000	81.4019
0.1920	0.0000	81.4946
0.1930	0.0000	81.5872
0.1940	0.0000	81.6799
0.1950	0.0000	81.7726
0.1960	0.0000	81.8653
0.1970	0.0000	81.9580
0.1980	0.0000	82.0506
0.1990	0.0000	82.1433
0.2000	0.0000	82.2360
0.2010	0.0000	82.3287
0.2020	0.0000	82.4214
0.2030	0.0000	82.5140
0.2040	0.0000	82.6067
0.2050	0.0000	82.6994
0.2060	0.0000	82.7921
0.2070	0.0000	82.8848
0.2080	0.0000	82.9774
0.2090	0.0000	83.0701
0.2100	0.0000	83.1628
0.2110	0.0000	83.2555
0.2120	0.0000	83.3482
0.2130	0.0000	83.4408
0.2140	0.0000	83.5335
0.2150	0.0000	83.6262
0.2160	0.0000	83.7189
0.2170	0.0000	83.8116
0.2180	0.0000	83.9042
0.2190	0.0000	83.9969
0.2200	0.0000	84.0896
0.2210	0.0000	84.1823
0.2220	0.0000	84.2750
0.2230	0.0000	84.3676
0.2240	0.0000	84.4603
0.2250	0.0000	84.5530
0.2260	0.0000	84.6457
0.2270	0.0000	84.7384
0.2280	0.0000	84.8310
0.2290	0.0000	84.9237
0.2300	0.0000	85.0164
0.2310	0.0000	85.1091
0.2320	0.0000	85.2018
0.2330	0.0000	85.2944
0.2340	0.0000	85.3871
0.2350	0.0000	85.4798
0.2360	0.0000	85.5725
0.2370	0.0000	85.6652
0.2380	0.0000	85.7578
0.2390	0.0000	85.8505
0.2400	0.0000	85.9432
0.2410	0.0000	86.0359
0.2420	0.0000	86.1286
0.2430	0.0000	86.2212
0.2440	0.0000	86.3139
0.2450	0.0000	86.4066
0.2460	0.0000	86.4993
0.2470	0.0000	86.5920
0.2480	0.0000	86.6846
0.2490	0.0000	86.7773
0.2500	0.0000	86.8700
0.2510	0.0000	86.9627
0.2520	0.0000	87.0554
0.2530	0.0000	87.1480
0.2540	0.0000	87.2407
0.2550	0.0000	87.3334
0.2560	0.0000	87.4261
0.2570	0.0000	87.5188
0.2580	0.0000	87.6114
0.2590	0.0000	87.7041
0.2600	0.0000	87.7968
0.2610	0.0000	87.8895
0.2620	0.0000	87.9822
0.2630	0.0000	88.0748
0.2640	0.0000	88.1675
0.2650	0.0000	88.2602
0.2660	0.0000	88.3529
0.2670	0.0000	88.4456
0.2680	0.0000	88.5382
0.2690	0.0000	88.6309
0.2700	0.0000	88.7236
0.2710	0.0000	88.8163
